<svg width="22" height="17" viewBox="0 0 22 17" fill="none" xmlns="http://www.w3.org/2000/svg">
<path d="M0.853516 8.21729C0.853516 6.368 1.37012 4.62354 2.40332 2.98389C3.43652 1.33675 4.58577 0.513184 5.85107 0.513184C6.84684 0.513184 7.73779 0.89502 8.52393 1.65869C9.31755 2.41488 9.9165 3.4069 10.3208 4.63477C10.7251 5.86263 10.9272 7.14665 10.9272 8.48682C10.9272 10.5308 10.4668 12.3201 9.5459 13.855C8.93945 14.8732 8.19824 15.5882 7.32227 16C6.87305 16.2021 6.40885 16.3032 5.92969 16.3032C5.02376 16.3032 4.18148 15.9364 3.40283 15.2026C2.62419 14.4614 2.00277 13.5443 1.53857 12.4512C1.08187 11.3506 0.853516 10.2874 0.853516 9.26172V8.21729ZM5.96338 15.6406C8.05973 15.6406 9.10791 13.4657 9.10791 9.11572C9.10791 7.29639 9.07048 6.07227 8.99561 5.44336C8.83838 4.12565 8.54264 3.1224 8.1084 2.43359C7.56934 1.59505 6.79443 1.17578 5.78369 1.17578C3.882 1.17578 2.85254 3.09619 2.69531 6.93701C2.67285 7.49105 2.66162 8.15739 2.66162 8.93604C2.66162 10.98 2.88249 12.5635 3.32422 13.6865C3.84082 14.9893 4.72054 15.6406 5.96338 15.6406ZM14.1504 4.44385C14.098 4.44385 14.0231 4.34652 13.9258 4.15186C13.9258 4.12939 14.0605 4.03206 14.3301 3.85986C14.5996 3.68018 15.1349 3.2347 15.936 2.52344C16.7371 1.81217 17.3997 1.14209 17.9238 0.513184H18.5527C18.6501 0.513184 18.71 0.528158 18.7324 0.558105C18.7549 0.588053 18.7661 0.644206 18.7661 0.726562V14.4277C18.7661 14.8994 18.8148 15.1652 18.9121 15.2251C19.279 15.4422 20.0239 15.5508 21.147 15.5508C21.2069 15.5508 21.2368 15.5807 21.2368 15.6406V15.9102C21.2368 15.9701 21.2069 16 21.147 16H14.3862C14.3263 16 14.2964 15.9701 14.2964 15.9102V15.6406C14.2964 15.5807 14.3263 15.5508 14.3862 15.5508C14.7606 15.5283 15.0863 15.5133 15.3633 15.5059C15.6403 15.4909 15.9323 15.4684 16.2393 15.4385C16.5462 15.4085 16.7596 15.3599 16.8794 15.2925C17.0067 15.2251 17.0815 15.124 17.104 14.9893C17.1265 14.8545 17.1377 14.6785 17.1377 14.4614V2.50098C17.1452 2.486 17.0628 2.5459 16.8906 2.68066C15.9173 3.45931 15.0264 4.04329 14.2178 4.43262L14.1504 4.44385Z" fill="#1B3764"/>
</svg>
