<svg width="23" height="17" viewBox="0 0 23 17" fill="none" xmlns="http://www.w3.org/2000/svg">
<path d="M0.853516 8.21729C0.853516 6.368 1.37012 4.62354 2.40332 2.98389C3.43652 1.33675 4.58577 0.513184 5.85107 0.513184C6.84684 0.513184 7.73779 0.89502 8.52393 1.65869C9.31755 2.41488 9.9165 3.4069 10.3208 4.63477C10.7251 5.86263 10.9272 7.14665 10.9272 8.48682C10.9272 10.5308 10.4668 12.3201 9.5459 13.855C8.93945 14.8732 8.19824 15.5882 7.32227 16C6.87305 16.2021 6.40885 16.3032 5.92969 16.3032C5.02376 16.3032 4.18148 15.9364 3.40283 15.2026C2.62419 14.4614 2.00277 13.5443 1.53857 12.4512C1.08187 11.3506 0.853516 10.2874 0.853516 9.26172V8.21729ZM5.96338 15.6406C8.05973 15.6406 9.10791 13.4657 9.10791 9.11572C9.10791 7.29639 9.07048 6.07227 8.99561 5.44336C8.83838 4.12565 8.54264 3.1224 8.1084 2.43359C7.56934 1.59505 6.79443 1.17578 5.78369 1.17578C3.882 1.17578 2.85254 3.09619 2.69531 6.93701C2.67285 7.49105 2.66162 8.15739 2.66162 8.93604C2.66162 10.98 2.88249 12.5635 3.32422 13.6865C3.84082 14.9893 4.72054 15.6406 5.96338 15.6406ZM13.2407 5.18506L12.9712 5.21875C12.8963 5.21875 12.8589 5.19629 12.8589 5.15137C12.8589 4.94173 12.9824 4.48128 13.2295 3.77002C13.4766 3.05127 13.7611 2.52344 14.083 2.18652C15.1686 1.07096 16.389 0.513184 17.7441 0.513184C19.0993 0.513184 20.1886 0.939941 21.0122 1.79346C21.8358 2.63949 22.2476 3.70638 22.2476 4.99414C22.2476 6.27441 21.4165 7.68945 19.7544 9.23926C19.2303 9.7334 18.7923 10.1302 18.4404 10.4297C17.9912 10.8115 17.1976 11.5565 16.0596 12.6646C14.929 13.7651 14.3638 14.3716 14.3638 14.4839H20.6865C21.2331 14.4839 21.6187 14.3304 21.8433 14.0234C21.978 13.8438 22.1502 13.3683 22.3599 12.5972H22.7866L22.3037 15.6294C22.2663 15.8016 22.1802 15.9251 22.0454 16H12.7017C12.6642 16 12.6455 15.9027 12.6455 15.708C12.6455 15.5208 12.8177 15.2288 13.1621 14.832C13.514 14.4352 13.9595 13.9673 14.4985 13.4282C15.0451 12.8817 15.7863 12.1367 16.7222 11.1934C19.103 8.77507 20.2935 6.83968 20.2935 5.38721C20.2935 4.49626 19.9678 3.69141 19.3164 2.97266C18.6725 2.24642 17.9201 1.8833 17.0591 1.8833C16.2056 1.8833 15.4419 2.17155 14.7681 2.74805C14.1092 3.32454 13.6637 4.0695 13.4316 4.98291C13.4017 5.11768 13.3381 5.18506 13.2407 5.18506Z" fill="#1B3764"/>
</svg>
