<svg width="23" height="17" viewBox="0 0 23 17" fill="none" xmlns="http://www.w3.org/2000/svg">
<path d="M0.853516 8.21729C0.853516 6.368 1.37012 4.62354 2.40332 2.98389C3.43652 1.33675 4.58577 0.513184 5.85107 0.513184C6.84684 0.513184 7.73779 0.89502 8.52393 1.65869C9.31755 2.41488 9.9165 3.4069 10.3208 4.63477C10.7251 5.86263 10.9272 7.14665 10.9272 8.48682C10.9272 10.5308 10.4668 12.3201 9.5459 13.855C8.93945 14.8732 8.19824 15.5882 7.32227 16C6.87305 16.2021 6.40885 16.3032 5.92969 16.3032C5.02376 16.3032 4.18148 15.9364 3.40283 15.2026C2.62419 14.4614 2.00277 13.5443 1.53857 12.4512C1.08187 11.3506 0.853516 10.2874 0.853516 9.26172V8.21729ZM5.96338 15.6406C8.05973 15.6406 9.10791 13.4657 9.10791 9.11572C9.10791 7.29639 9.07048 6.07227 8.99561 5.44336C8.83838 4.12565 8.54264 3.1224 8.1084 2.43359C7.56934 1.59505 6.79443 1.17578 5.78369 1.17578C3.882 1.17578 2.85254 3.09619 2.69531 6.93701C2.67285 7.49105 2.66162 8.15739 2.66162 8.93604C2.66162 10.98 2.88249 12.5635 3.32422 13.6865C3.84082 14.9893 4.72054 15.6406 5.96338 15.6406ZM18.418 6.66748C18.5078 6.65251 18.6426 6.64502 18.8223 6.64502C19.6908 6.64502 20.4881 7.00814 21.2144 7.73438C21.9406 8.46061 22.3037 9.389 22.3037 10.5195C22.3037 11.6426 22.0042 12.6346 21.4053 13.4956C20.8138 14.3566 20.0726 15.0417 19.1816 15.5508C18.2982 16.0524 17.4409 16.3032 16.6099 16.3032C14.7905 16.3032 13.5514 15.9364 12.8926 15.2026C12.7204 15.0155 12.5968 14.7909 12.522 14.5288C12.522 14.0272 12.8327 13.7764 13.4541 13.7764C13.6113 13.7764 13.9258 13.9635 14.3975 14.3379C14.8766 14.7048 15.3258 15.008 15.7451 15.2476C16.1644 15.4871 16.6361 15.5994 17.1602 15.5845C18.141 15.5545 18.9383 15.0828 19.5522 14.1694C20.1737 13.2485 20.4844 12.2453 20.4844 11.1597C20.4844 10.0666 20.2148 9.243 19.6758 8.68896C19.1367 8.13493 18.4966 7.85791 17.7554 7.85791C17.3586 7.85791 17.0291 7.93278 16.7671 8.08252C16.505 8.22477 16.3516 8.32585 16.3066 8.38574C16.2617 8.44564 16.2205 8.47559 16.1831 8.47559C16.1532 8.47559 16.112 8.44564 16.0596 8.38574C16.0072 8.32585 15.981 8.27344 15.981 8.22852C15.981 8.18359 16.0034 8.13867 16.0483 8.09375C16.1007 8.04134 16.1606 7.98893 16.228 7.93652C16.2954 7.87663 16.3628 7.82048 16.4302 7.76807C18.2944 6.31559 19.2266 5.04281 19.2266 3.94971C19.2266 3.3208 18.9907 2.79671 18.519 2.37744C18.0474 1.95817 17.5457 1.74854 17.0142 1.74854C15.6366 1.74854 14.5247 2.52344 13.6787 4.07324C13.6712 4.08073 13.6413 4.08447 13.5889 4.08447C13.5439 4.08447 13.4728 4.06201 13.3755 4.01709C13.2782 3.97217 13.2295 3.93848 13.2295 3.91602C13.2295 3.89355 13.237 3.85986 13.252 3.81494C13.2744 3.77002 13.3343 3.62402 13.4316 3.37695C13.529 3.12988 13.7311 2.81543 14.0381 2.43359C14.3525 2.04427 14.6969 1.70736 15.0713 1.42285C15.8724 0.816406 16.5949 0.513184 17.2388 0.513184C18.4217 0.513184 19.3201 0.749023 19.9341 1.2207C20.548 1.69238 20.855 2.35124 20.855 3.19727C20.855 4.03581 20.3983 4.91178 19.4849 5.8252C19.3276 5.94499 19.103 6.10596 18.811 6.30811C18.5265 6.50277 18.3843 6.61882 18.3843 6.65625V6.66748H18.418Z" fill="#1B3764"/>
</svg>
