<svg width="23" height="17" viewBox="0 0 23 17" fill="none" xmlns="http://www.w3.org/2000/svg">
<path d="M0.853516 8.21729C0.853516 6.368 1.37012 4.62354 2.40332 2.98389C3.43652 1.33675 4.58577 0.513184 5.85107 0.513184C6.84684 0.513184 7.73779 0.89502 8.52393 1.65869C9.31755 2.41488 9.9165 3.4069 10.3208 4.63477C10.7251 5.86263 10.9272 7.14665 10.9272 8.48682C10.9272 10.5308 10.4668 12.3201 9.5459 13.855C8.93945 14.8732 8.19824 15.5882 7.32227 16C6.87305 16.2021 6.40885 16.3032 5.92969 16.3032C5.02376 16.3032 4.18148 15.9364 3.40283 15.2026C2.62419 14.4614 2.00277 13.5443 1.53857 12.4512C1.08187 11.3506 0.853516 10.2874 0.853516 9.26172V8.21729ZM5.96338 15.6406C8.05973 15.6406 9.10791 13.4657 9.10791 9.11572C9.10791 7.29639 9.07048 6.07227 8.99561 5.44336C8.83838 4.12565 8.54264 3.1224 8.1084 2.43359C7.56934 1.59505 6.79443 1.17578 5.78369 1.17578C3.882 1.17578 2.85254 3.09619 2.69531 6.93701C2.67285 7.49105 2.66162 8.15739 2.66162 8.93604C2.66162 10.98 2.88249 12.5635 3.32422 13.6865C3.84082 14.9893 4.72054 15.6406 5.96338 15.6406ZM12.769 11.5527C12.5894 11.5527 12.4995 11.4854 12.4995 11.3506C12.4995 11.2083 12.5295 11.0923 12.5894 11.0024L19.5522 0.771484C19.6646 0.599284 19.7956 0.513184 19.9453 0.513184C20.0951 0.513184 20.2111 0.524414 20.2935 0.546875C20.3833 0.569336 20.4282 0.655436 20.4282 0.805176V10.0366C20.4282 10.1564 20.4469 10.235 20.4844 10.2725C20.5218 10.3024 20.5967 10.3174 20.709 10.3174H22.5171C22.5994 10.3174 22.6781 10.3249 22.7529 10.3398C22.8278 10.3548 22.8652 10.4147 22.8652 10.5195V11.2832C22.8652 11.4629 22.7904 11.5527 22.6406 11.5527H20.7202C20.578 11.5527 20.4919 11.5715 20.4619 11.6089C20.4395 11.6463 20.4282 11.7174 20.4282 11.8223V16.1685C20.4282 16.3332 20.3646 16.4155 20.2373 16.4155H19.0244C18.8747 16.4155 18.7998 16.3294 18.7998 16.1572V11.8223C18.7998 11.7174 18.7811 11.6463 18.7437 11.6089C18.7137 11.5715 18.6351 11.5527 18.5078 11.5527H12.769ZM18.7998 3.87109C18.7998 3.5791 18.71 3.43311 18.5303 3.43311C18.4704 3.43311 18.3618 3.51172 18.2046 3.66895L13.8921 10.0928C13.8621 10.1302 13.8472 10.1789 13.8472 10.2388C13.8472 10.2912 13.9632 10.3174 14.1953 10.3174H18.5078C18.6351 10.3174 18.7137 10.2912 18.7437 10.2388C18.7811 10.1864 18.7998 10.1152 18.7998 10.0254V3.87109Z" fill="#1B3764"/>
</svg>
